<?xml version="1.0" standalone="no"?>
<!DOCTYPE svg PUBLIC "-//W3C//DTD SVG 20010904//EN"
 "http://www.w3.org/TR/2001/REC-SVG-20010904/DTD/svg10.dtd">
<svg version="1.0" xmlns="http://www.w3.org/2000/svg"
 width="700.000000pt" height="700.000000pt" viewBox="0 0 700.000000 700.000000"
 preserveAspectRatio="xMidYMid meet">
<metadata>
Created by potrace 1.14, written by Peter Selinger 2001-2017
</metadata>
<g transform="translate(0.000000,700.000000) scale(0.100000,-0.100000)"
fill="#000000" stroke="none">
<path d="M3278 6995 c-1 -1 -42 -5 -89 -9 -47 -4 -95 -8 -105 -10 -10 -2 -41
-7 -69 -10 -335 -44 -715 -158 -1030 -312 -180 -87 -448 -247 -555 -331 -8 -6
-51 -40 -95 -74 -340 -264 -650 -624 -875 -1014 -47 -83 -170 -327 -170 -340
0 -3 -9 -24 -20 -48 -57 -123 -157 -435 -186 -582 -2 -11 -10 -54 -19 -95 -29
-147 -36 -200 -52 -370 -15 -165 -8 -592 12 -711 2 -13 6 -46 9 -74 9 -78 22
-152 51 -285 21 -96 91 -339 114 -395 5 -11 30 -75 55 -142 54 -140 181 -394
249 -501 26 -40 47 -75 47 -78 0 -2 4 -10 10 -17 5 -7 46 -64 91 -126 416
-590 1033 -1051 1718 -1283 199 -67 449 -127 640 -154 25 -3 57 -8 71 -10 162
-25 683 -25 841 1 13 2 47 7 74 10 71 10 87 13 115 18 14 3 43 8 65 12 22 4
67 14 100 22 33 8 71 17 85 20 62 11 278 80 400 128 640 249 1174 662 1579
1220 97 135 102 141 201 313 68 118 170 323 185 373 4 13 11 29 15 34 32 40
181 535 195 647 2 15 6 35 9 45 3 10 8 43 11 73 4 30 8 57 10 60 2 3 6 34 10
70 4 36 9 79 12 95 2 17 6 143 8 280 3 249 -2 353 -30 550 -1 11 -6 43 -10 70
-10 77 -63 310 -91 405 -72 245 -131 391 -246 618 -246 484 -608 911 -1038
1225 -58 43 -109 81 -115 85 -14 10 -67 45 -87 57 -9 5 -50 30 -90 55 -306
186 -748 355 -1113 426 -22 4 -42 8 -45 9 -3 0 -30 5 -60 9 -30 4 -64 10 -75
12 -11 2 -47 6 -81 9 -33 4 -74 9 -90 11 -32 5 -540 14 -546 9z"/>
</g>
</svg>
